Pacifico-Lightl.ufo
<glyph name="one" format="1">
  <advance width="682"/>
  <unicode hex="0031"/>
  <outline>
    <contour>
      <point x="264" y="0" type="curve"/>
      <point x="316" y="0"/>
      <point x="336" y="17"/>
      <point x="339" y="32" type="curve"/>
      <point x="429" y="499"/>
      <point x="592" y="1281"/>
      <point x="592" y="1372" type="curve"/>
      <point x="592" y="1428"/>
      <point x="549" y="1438"/>
      <point x="488" y="1438" type="curve"/>
      <point x="377" y="1438"/>
      <point x="287" y="1322"/>
      <point x="217" y="1261" type="curve"/>
      <point x="200" y="1242"/>
      <point x="176" y="1227"/>
      <point x="176" y="1208" type="curve"/>
      <point x="176" y="1190"/>
      <point x="188" y="1171"/>
      <point x="201" y="1171" type="curve"/>
      <point x="241" y="1171"/>
      <point x="382" y="1264"/>
      <point x="398" y="1281" type="curve"/>
      <point x="310" y="810"/>
      <point x="294" y="707"/>
      <point x="152" y="66" type="curve"/>
      <point x="140" y="8"/>
      <point x="215" y="0"/>
    </contour>
  </outline>
</glyph>
<glyph name="four" format="1">
  <advance width="927"/>
  <unicode hex="0034"/>
  <outline>
    <contour>
      <point x="597" y="-4" type="curve"/>
      <point x="650" y="-4"/>
      <point x="676" y="-4"/>
      <point x="686" y="3" type="curve"/>
      <point x="703" y="18"/>
      <point x="663" y="54"/>
      <point x="663" y="141" type="curve"/>
      <point x="668" y="231"/>
      <point x="673" y="243"/>
      <point x="678" y="266" type="curve"/>
      <point x="743" y="269"/>
      <point x="806" y="267"/>
      <point x="861" y="257" type="curve"/>
      <point x="902" y="248"/>
      <point x="911" y="310"/>
      <point x="911" y="359" type="curve"/>
      <point x="911" y="382"/>
      <point x="813" y="396"/>
      <point x="718" y="387" type="curve"/>
      <point x="738" y="482"/>
      <point x="806" y="575.43"/>
      <point x="806" y="674" type="curve"/>
      <point x="806" y="693.974"/>
      <point x="797.046" y="700"/>
      <point x="756" y="700" type="curve"/>
      <point x="699.144" y="700"/>
      <point x="652.902" y="668.457"/>
      <point x="640.873" y="624.856" type="curve"/>
      <point x="616.617" y="538.854"/>
      <point x="583" y="471"/>
      <point x="557" y="384" type="curve"/>
      <point x="505" y="384"/>
      <point x="445" y="381"/>
      <point x="366.322" y="366.112" type="curve"/>
      <point x="464" y="559"/>
      <point x="539" y="763"/>
      <point x="558" y="953" type="curve"/>
      <point x="558" y="993"/>
      <point x="551" y="1022"/>
      <point x="499" y="1022" type="curve"/>
      <point x="435.138" y="1022"/>
      <point x="348.376" y="1011.88"/>
      <point x="342.277" y="985.45" type="curve"/>
      <point x="257" y="486"/>
      <point x="116" y="278.723"/>
      <point x="116" y="237" type="curve"/>
      <point x="120" y="192"/>
      <point x="296" y="261"/>
      <point x="528" y="261" type="curve"/>
      <point x="511" y="188"/>
      <point x="496" y="159"/>
      <point x="496" y="82" type="curve"/>
      <point x="496" y="13"/>
      <point x="521" y="-4"/>
    </contour>
  </outline>
</glyph>
<glyph name="six" format="1">
  <advance width="1166"/>
  <unicode hex="0036"/>
  <outline>
    <contour>
      <point x="556" y="97" type="curve"/>
      <point x="391" y="97"/>
      <point x="306" y="262"/>
      <point x="306" y="406" type="curve"/>
      <point x="306" y="595"/>
      <point x="379" y="747"/>
      <point x="623" y="747" type="curve"/>
      <point x="770.727" y="747"/>
      <point x="848" y="638"/>
      <point x="848" y="497" type="curve"/>
      <point x="848" y="322"/>
      <point x="745" y="97"/>
    </contour>
    <contour>
      <point x="551" y="-30" type="curve"/>
      <point x="845" y="-30"/>
      <point x="1083" y="183"/>
      <point x="1083" y="478" type="curve"/>
      <point x="1083" y="703"/>
      <point x="944" y="879"/>
      <point x="757" y="879" type="curve"/>
      <point x="623" y="879"/>
      <point x="481" y="842"/>
      <point x="390" y="767" type="curve"/>
      <point x="476" y="976"/>
      <point x="706" y="1224"/>
      <point x="968" y="1377" type="curve"/>
      <point x="1003" y="1399"/>
      <point x="1023" y="1424"/>
      <point x="1023" y="1460" type="curve"/>
      <point x="1023" y="1492"/>
      <point x="995" y="1515"/>
      <point x="946" y="1515" type="curve"/>
      <point x="918" y="1515"/>
      <point x="900" y="1507"/>
      <point x="870" y="1493" type="curve"/>
      <point x="524" y="1325"/>
      <point x="112" y="958"/>
      <point x="112" y="455" type="curve"/>
      <point x="112" y="153"/>
      <point x="280" y="-30"/>
    </contour>
  </outline>
</glyph>
<glyph name="D" format="1">
  <advance width="1354"/>
  <unicode hex="0044"/>
  <outline>
    <contour>
      <point x="617" y="-60" type="curve"/>
      <point x="706" y="-60"/>
      <point x="785" y="-45"/>
      <point x="862" y="-17" type="curve"/>
      <point x="1216" y="118"/>
      <point x="1473" y="537"/>
      <point x="1473" y="1028" type="curve"/>
      <point x="1489" y="1533"/>
      <point x="1161" y="1730"/>
      <point x="670" y="1730" type="curve"/>
      <point x="409" y="1730"/>
      <point x="236" y="1645"/>
      <point x="95" y="1478" type="curve"/>
      <point x="48" y="1423"/>
      <point x="0" y="1339"/>
      <point x="0" y="1258" type="curve"/>
      <point x="0" y="1228"/>
      <point x="21" y="1198"/>
      <point x="44" y="1198" type="curve"/>
      <point x="105" y="1198"/>
      <point x="94" y="1268"/>
      <point x="212" y="1392" type="curve"/>
      <point x="352" y="1541"/>
      <point x="544" y="1581"/>
      <point x="681" y="1581" type="curve"/>
      <point x="1056" y="1581"/>
      <point x="1325" y="1397"/>
      <point x="1309" y="1009" type="curve"/>
      <point x="1309" y="944"/>
      <point x="1300" y="875"/>
      <point x="1285" y="805" type="curve"/>
      <point x="1212" y="484"/>
      <point x="996" y="48"/>
      <point x="585" y="48" type="curve"/>
      <point x="462" y="48"/>
      <point x="449" y="126"/>
      <point x="449" y="218" type="curve"/>
      <point x="449" y="575"/>
      <point x="533" y="1119"/>
      <point x="695" y="1361" type="curve"/>
      <point x="673" y="1390"/>
      <point x="649" y="1402"/>
      <point x="622" y="1402" type="curve"/>
      <point x="593" y="1402"/>
      <point x="560" y="1391"/>
      <point x="522" y="1365" type="curve"/>
      <point x="328" y="1075"/>
      <point x="269" y="545"/>
      <point x="269" y="53" type="curve"/>
      <point x="269" y="26"/>
      <point x="268" y="27"/>
      <point x="284" y="20" type="curve"/>
      <point x="375" y="-22"/>
      <point x="488" y="-60"/>
    </contour>
  </outline>
</glyph>
<glyph name="F" format="1">
  <advance width="1288"/>
  <unicode hex="0046"/>
  <outline>
    <contour>
      <point x="414" y="-198" type="curve"/>
      <point x="863" y="-198"/>
      <point x="905" y="175"/>
      <point x="1012" y="790" type="curve"/>
      <point x="1155" y="790"/>
      <point x="1253" y="792"/>
      <point x="1319" y="812" type="curve" smooth="yes"/>
      <point x="1339" y="818"/>
      <point x="1361" y="839"/>
      <point x="1361" y="864" type="curve"/>
      <point x="1361" y="883"/>
      <point x="1357" y="906"/>
      <point x="1307" y="916" type="curve" smooth="yes"/>
      <point x="1259" y="926"/>
      <point x="1159" y="920"/>
      <point x="1032" y="920" type="curve"/>
      <point x="1043" y="982"/>
      <point x="1125" y="1467"/>
      <point x="1146" y="1659" type="curve"/>
      <point x="1227" y="1671"/>
      <point x="1318" y="1670"/>
      <point x="1412" y="1670" type="curve"/>
      <point x="1488" y="1670"/>
      <point x="1744" y="1652"/>
      <point x="1853" y="1638" type="curve"/>
      <point x="1931" y="1632"/>
      <point x="1966" y="1658"/>
      <point x="1966" y="1718" type="curve"/>
      <point x="1962" y="1810"/>
      <point x="1416" y="1818"/>
      <point x="1254" y="1818" type="curve"/>
      <point x="750" y="1818"/>
      <point x="215" y="1728"/>
      <point x="215" y="1256" type="curve"/>
      <point x="215" y="1217"/>
      <point x="252" y="1205"/>
      <point x="312" y="1205" type="curve"/>
      <point x="386" y="1205"/>
      <point x="406" y="1227"/>
      <point x="406" y="1252" type="curve"/>
      <point x="406" y="1496"/>
      <point x="569" y="1624"/>
      <point x="994" y="1659" type="curve"/>
      <point x="945" y="1409"/>
      <point x="923" y="1206"/>
      <point x="866" y="916" type="curve"/>
      <point x="678" y="911"/>
      <point x="632" y="887"/>
      <point x="632" y="844" type="curve"/>
      <point x="632" y="810.225"/>
      <point x="656.223" y="796.167"/>
      <point x="735.956" y="789.986" type="curve" smooth="yes"/>
      <point x="762.456" y="787.932"/>
      <point x="795.088" y="786.748"/>
      <point x="835" y="786" type="curve"/>
      <point x="819" y="672"/>
      <point x="772" y="-54"/>
      <point x="434" y="-54" type="curve"/>
      <point x="254" y="-54"/>
      <point x="309" y="17"/>
      <point x="210" y="17" type="curve"/>
      <point x="173" y="17"/>
      <point x="140" y="-20"/>
      <point x="140" y="-69" type="curve"/>
      <point x="140" y="-168"/>
      <point x="301" y="-198"/>
    </contour>
  </outline>
</glyph>
<glyph name="H" format="1">
  <advance width="1983"/>
  <unicode hex="0048"/>
  <outline>
    <contour>
      <point x="2003" y="-211" type="curve"/>
      <point x="2043" y="-184"/>
      <point x="1994" y="-89"/>
      <point x="1962" y="-102" type="curve"/>
      <point x="1715" y="-204"/>
      <point x="1114" y="-535"/>
      <point x="1327" y="353" type="curve"/>
      <point x="1535" y="1149" type="line"/>
      <point x="1596" y="1400"/>
      <point x="1723" y="1644"/>
      <point x="1856" y="1688" type="curve"/>
      <point x="2121" y="1759"/>
      <point x="2371" y="654"/>
      <point x="644" y="916" type="curve"/>
      <point x="569" y="928"/>
      <point x="523" y="786"/>
      <point x="608" y="774" type="curve"/>
      <point x="2601" y="415"/>
      <point x="2318" y="1963"/>
      <point x="1868" y="1867" type="curve"/>
      <point x="1718" y="1844"/>
      <point x="1523" y="1702"/>
      <point x="1373" y="1167" type="curve"/>
      <point x="1154" y="298" type="line"/>
      <point x="944" y="-502"/>
      <point x="1531" y="-539"/>
    </contour>
    <contour>
      <point x="120" y="-305" type="curve"/>
      <point x="206" y="-320"/>
      <point x="231" y="-267"/>
      <point x="269" y="-150" type="curve"/>
      <point x="682" y="1134" type="line"/>
      <point x="815" y="1556"/>
      <point x="784" y="1871"/>
      <point x="495" y="1898" type="curve"/>
      <point x="227" y="1933"/>
      <point x="67" y="1767"/>
      <point x="-12" y="1654" type="curve"/>
      <point x="-74" y="1564"/>
      <point x="30" y="1465"/>
      <point x="127" y="1579" type="curve"/>
      <point x="171" y="1629"/>
      <point x="300" y="1755"/>
      <point x="395" y="1755" type="curve"/>
      <point x="623" y="1755"/>
      <point x="667" y="1540"/>
      <point x="484" y="1046" type="curve"/>
      <point x="75" y="-97" type="line"/>
      <point x="12" y="-268"/>
      <point x="62" y="-295"/>
    </contour>
  </outline>
</glyph>
<glyph name="I" format="1">
  <advance width="982"/>
  <unicode hex="0049"/>
  <outline>
    <contour>
      <point x="86" y="-68" type="curve"/>
      <point x="119" y="-79"/>
      <point x="535" y="-24"/>
      <point x="831" y="-12" type="curve"/>
      <point x="932" y="-8"/>
      <point x="937" y="96"/>
      <point x="905" y="108" type="curve"/>
      <point x="845" y="131"/>
      <point x="630" y="112"/>
      <point x="572" y="103" type="curve"/>
      <point x="581" y="406"/>
      <point x="958" y="1704"/>
      <point x="1038" y="1713" type="curve"/>
      <point x="1140" y="1725"/>
      <point x="1391" y="1728"/>
      <point x="1404" y="1764" type="curve"/>
      <point x="1434" y="1842"/>
      <point x="1440" y="1872"/>
      <point x="1398" y="1871" type="curve"/>
      <point x="1318" y="1869"/>
      <point x="615" y="1852"/>
      <point x="542" y="1845" type="curve"/>
      <point x="495" y="1841"/>
      <point x="473" y="1745"/>
      <point x="496" y="1720" type="curve"/>
      <point x="530" y="1682"/>
      <point x="814" y="1717"/>
      <point x="864" y="1704" type="curve"/>
      <point x="680" y="1319"/>
      <point x="478" y="624"/>
      <point x="403" y="102" type="curve"/>
      <point x="351" y="99"/>
      <point x="66" y="93"/>
      <point x="51" y="38" type="curve"/>
      <point x="35" y="-18"/>
      <point x="57" y="-58"/>
    </contour>
  </outline>
</glyph>
<glyph name="O" format="1">
  <advance width="1853"/>
  <unicode hex="004F"/>
  <outline>
    <contour>
      <point x="882" y="-150" type="curve"/>
      <point x="531" y="-150"/>
      <point x="371" y="265.731"/>
      <point x="371" y="536" type="curve"/>
      <point x="371" y="975.874"/>
      <point x="617" y="1720"/>
      <point x="1157" y="1720" type="curve"/>
      <point x="1492" y="1720"/>
      <point x="1615" y="1344.3"/>
      <point x="1615" y="1041" type="curve"/>
      <point x="1615" y="634.706"/>
      <point x="1418" y="-150"/>
    </contour>
    <contour>
      <point x="863" y="-303" type="curve"/>
      <point x="1483" y="-303"/>
      <point x="1805" y="450.551"/>
      <point x="1805" y="991.999" type="curve"/>
      <point x="1805" y="1441.19"/>
      <point x="1577" y="1869"/>
      <point x="1143" y="1869" type="curve"/>
      <point x="554" y="1869"/>
      <point x="190" y="1169.75"/>
      <point x="190" y="543" type="curve"/>
      <point x="190" y="160.24"/>
      <point x="424" y="-303"/>
    </contour>
  </outline>
</glyph>
<glyph name="R" format="1">
  <advance width="2036"/>
  <unicode hex="0052"/>
  <outline>
    <contour>
      <point x="1208.54" y="911.114" type="curve"/>
      <point x="1351" y="47"/>
      <point x="1606" y="-284"/>
      <point x="1902" y="-277" type="curve"/>
      <point x="2010" y="-277"/>
      <point x="2083.25" y="-249.75"/>
      <point x="2128.5" y="-216.875" type="curve" smooth="yes"/>
      <point x="2173.75" y="-184"/>
      <point x="2191" y="-145.5"/>
      <point x="2187" y="-123" type="curve"/>
      <point x="2180" y="-98"/>
      <point x="2147" y="-84"/>
      <point x="2112" y="-96" type="curve"/>
      <point x="2037" y="-122"/>
      <point x="2010" y="-126"/>
      <point x="1936" y="-126" type="curve"/>
      <point x="1821" y="-126"/>
      <point x="1573" y="-52"/>
      <point x="1369.76" y="932.932" type="curve"/>
      <point x="1499.2" y="929.699"/>
      <point x="1851.93" y="1084.51"/>
      <point x="1857" y="1418.42" type="curve"/>
      <point x="1861.69" y="1751.55"/>
      <point x="1542" y="1972"/>
      <point x="1161" y="1975" type="curve"/>
      <point x="859" y="1977"/>
      <point x="169" y="1841.42"/>
      <point x="169" y="585" type="curve"/>
      <point x="169" y="-293"/>
      <point x="469" y="-302"/>
      <point x="593" y="-301" type="curve"/>
      <point x="893" y="-299"/>
      <point x="998.454" y="147.478"/>
      <point x="1048.05" y="974.804" type="curve"/>
      <point x="1064" y="1237"/>
      <point x="1153" y="1362"/>
      <point x="1153" y="1413" type="curve" smooth="yes"/>
      <point x="1153" y="1435"/>
      <point x="1136" y="1443"/>
      <point x="1087.97" y="1442.02" type="curve"/>
      <point x="973" y="1438"/>
      <point x="917" y="1258"/>
      <point x="881" y="1020" type="curve" smooth="yes"/>
      <point x="810" y="554"/>
      <point x="813" y="-132"/>
      <point x="589" y="-132" type="curve"/>
      <point x="372" y="-132"/>
      <point x="359" y="417.492"/>
      <point x="359" y="597" type="curve"/>
      <point x="359" y="771.708"/>
      <point x="362" y="1805"/>
      <point x="1111" y="1805" type="curve"/>
      <point x="1437" y="1805"/>
      <point x="1648" y="1579.9"/>
      <point x="1648" y="1396" type="curve"/>
      <point x="1648" y="1213.81"/>
      <point x="1500" y="1048"/>
      <point x="1044" y="1064" type="curve"/>
      <point x="922" y="1064"/>
      <point x="832" y="1080"/>
      <point x="775" y="1082" type="curve" smooth="yes"/>
      <point x="730" y="1085"/>
      <point x="705" y="1079"/>
      <point x="698.122" y="1052.79" type="curve"/>
      <point x="676.049" y="971.325"/>
      <point x="774.162" y="888.55"/>
    </contour>
  </outline>
</glyph>
<glyph name="S" format="1">
  <advance width="1641"/>
  <unicode hex="0053"/>
  <outline>
    <contour>
      <point x="790" y="-333" type="curve"/>
      <point x="1205" y="-333"/>
      <point x="1503" y="-105"/>
      <point x="1503" y="235" type="curve"/>
      <point x="1503" y="547"/>
      <point x="1316.6" y="656.949"/>
      <point x="1010.72" y="849.132" type="curve"/>
      <point x="651" y="1099"/>
      <point x="535" y="1139"/>
      <point x="535" y="1368" type="curve"/>
      <point x="535" y="1568"/>
      <point x="793" y="1725"/>
      <point x="1015" y="1725" type="curve"/>
      <point x="1223" y="1725"/>
      <point x="1419" y="1611"/>
      <point x="1419" y="1426" type="curve"/>
      <point x="1419" y="1318"/>
      <point x="1374" y="1240"/>
      <point x="1328" y="1180" type="curve"/>
      <point x="1267" y="1103"/>
      <point x="1360" y="1008"/>
      <point x="1464" y="1133" type="curve"/>
      <point x="1517" y="1195"/>
      <point x="1565" y="1297"/>
      <point x="1563" y="1424" type="curve"/>
      <point x="1559" y="1697"/>
      <point x="1316" y="1860"/>
      <point x="990" y="1850" type="curve"/>
      <point x="670" y="1841"/>
      <point x="334" y="1647"/>
      <point x="334" y="1344" type="curve"/>
      <point x="334" y="1060"/>
      <point x="543" y="915"/>
      <point x="788" y="752" type="curve"/>
      <point x="1026" y="595"/>
      <point x="1310" y="498"/>
      <point x="1310" y="214" type="curve"/>
      <point x="1310" y="-9"/>
      <point x="1165" y="-188"/>
      <point x="805" y="-188" type="curve"/>
      <point x="496" y="-188"/>
      <point x="296" y="-40"/>
      <point x="296" y="224" type="curve"/>
      <point x="296" y="315"/>
      <point x="332" y="365"/>
      <point x="332" y="423" type="curve"/>
      <point x="332" y="449"/>
      <point x="320" y="460"/>
      <point x="296" y="460" type="curve"/>
      <point x="197" y="460"/>
      <point x="127" y="347"/>
      <point x="127" y="223" type="curve"/>
      <point x="127" y="-142"/>
      <point x="448" y="-333"/>
    </contour>
  </outline>
</glyph>
<glyph name="U" format="1">
  <advance width="1592"/>
  <unicode hex="0055"/>
  <outline>
    <contour>
      <point x="700" y="-160" type="curve"/>
      <point x="887" y="-160"/>
      <point x="1024" y="-72"/>
      <point x="1132" y="36" type="curve"/>
      <point x="1446" y="352"/>
      <point x="1576" y="992"/>
      <point x="1576" y="1638" type="curve"/>
      <point x="1576" y="1710"/>
      <point x="1560" y="1733"/>
      <point x="1503" y="1733" type="curve"/>
      <point x="1411" y="1733"/>
      <point x="1373" y="1698"/>
      <point x="1368" y="1611" type="curve"/>
      <point x="1344" y="1163"/>
      <point x="1253" y="-16"/>
      <point x="731" y="-16" type="curve"/>
      <point x="526" y="-16"/>
      <point x="402" y="153.935"/>
      <point x="402" y="578" type="curve"/>
      <point x="402" y="955.297"/>
      <point x="564" y="1284"/>
      <point x="617" y="1578" type="curve"/>
      <point x="617" y="1582" type="line"/>
      <point x="617" y="1632"/>
      <point x="584" y="1637"/>
      <point x="500" y="1637" type="curve"/>
      <point x="428" y="1637"/>
      <point x="413" y="1589"/>
      <point x="384" y="1504" type="curve"/>
      <point x="296" y="1255"/>
      <point x="216" y="917.614"/>
      <point x="216" y="588" type="curve"/>
      <point x="216" y="193.742"/>
      <point x="327" y="-160"/>
    </contour>
  </outline>
</glyph>
<glyph name="V" format="1">
  <advance width="1236"/>
  <unicode hex="0056"/>
  <outline>
    <contour>
      <point x="360" y="-170" type="curve"/>
      <point x="424" y="-182"/>
      <point x="468" y="-171"/>
      <point x="533" y="-71" type="curve"/>
      <point x="1474" y="1528" type="line"/>
      <point x="1513" y="1597"/>
      <point x="1547" y="1681"/>
      <point x="1459" y="1681" type="curve"/>
      <point x="1420" y="1681"/>
      <point x="1379" y="1672"/>
      <point x="1325" y="1575" type="curve"/>
      <point x="1325" y="1575"/>
      <point x="420" y="-3"/>
      <point x="420" y="-3" type="curve"/>
      <point x="332" y="1618" type="line"/>
      <point x="328" y="1703"/>
      <point x="315" y="1730"/>
      <point x="251" y="1730" type="curve"/>
      <point x="178" y="1730"/>
      <point x="149" y="1701"/>
      <point x="149" y="1630" type="curve"/>
      <point x="149" y="1628"/>
      <point x="148.889" y="1625"/>
      <point x="221" y="326" type="curve"/>
      <point x="250" y="-117"/>
      <point x="273" y="-153"/>
    </contour>
  </outline>
</glyph>
<glyph name="X" format="1">
  <advance width="1536"/>
  <unicode hex="0058"/>
  <outline>
    <contour>
      <point x="1249" y="-169" type="curve"/>
      <point x="1472" y="-162"/>
      <point x="1570" y="51"/>
      <point x="1570" y="77" type="curve"/>
      <point x="1570" y="97"/>
      <point x="1550" y="117"/>
      <point x="1518" y="134" type="curve"/>
      <point x="1465" y="172"/>
      <point x="1459" y="13"/>
      <point x="1297" y="16" type="curve"/>
      <point x="911" y="23"/>
      <point x="1077" y="1748"/>
      <point x="489" y="1748" type="curve"/>
      <point x="76" y="1748"/>
      <point x="124" y="1350"/>
      <point x="155" y="1301" type="curve"/>
      <point x="165" y="1283"/>
      <point x="174" y="1304"/>
      <point x="178" y="1312" type="curve"/>
      <point x="188" y="1335"/>
      <point x="294" y="1568"/>
      <point x="422" y="1568" type="curve"/>
      <point x="867" y="1568"/>
      <point x="783" y="-185"/>
    </contour>
    <contour>
      <point x="41" y="-145" type="curve"/>
      <point x="81" y="-148"/>
      <point x="145" y="-133"/>
      <point x="209" y="-50" type="curve"/>
      <point x="307" y="79"/>
      <point x="1143" y="1245"/>
      <point x="1426" y="1448" type="curve"/>
      <point x="1627" y="1594"/>
      <point x="1451" y="1323"/>
      <point x="1583" y="1323" type="curve"/>
      <point x="1626" y="1323"/>
      <point x="1670" y="1395"/>
      <point x="1673" y="1485" type="curve"/>
      <point x="1677" y="1579"/>
      <point x="1643" y="1712"/>
      <point x="1566" y="1716" type="curve"/>
      <point x="1318" y="1731"/>
      <point x="160" y="207"/>
      <point x="20" y="37" type="curve"/>
      <point x="-98" y="-107"/>
      <point x="-18" y="-145"/>
    </contour>
  </outline>
</glyph>
<glyph name="Y" format="1">
  <advance width="1461"/>
  <unicode hex="0059"/>
  <outline>
    <contour>
      <point x="393" y="-362" type="curve" smooth="yes"/>
      <point x="499" y="-362"/>
      <point x="559" y="-327"/>
      <point x="620" y="-269" type="curve" smooth="yes"/>
      <point x="732" y="-165"/>
      <point x="837" y="11.0001"/>
      <point x="960" y="251" type="curve" smooth="yes"/>
      <point x="1672" y="1634" type="line" smooth="yes"/>
      <point x="1731" y="1750"/>
      <point x="1540" y="1787"/>
      <point x="1515" y="1735" type="curve" smooth="yes"/>
      <point x="1026" y="730" type="line"/>
      <point x="770" y="1180" type="line" smooth="yes"/>
      <point x="647" y="1394"/>
      <point x="539" y="1672"/>
      <point x="256" y="1673" type="curve" smooth="yes"/>
      <point x="-135" y="1666"/>
      <point x="-145" y="1371"/>
      <point x="-14" y="1217" type="curve" smooth="yes"/>
      <point x="30" y="1165"/>
      <point x="103" y="1190"/>
      <point x="45" y="1268" type="curve" smooth="yes"/>
      <point x="-35" y="1377"/>
      <point x="59" y="1478"/>
      <point x="145" y="1505" type="curve" smooth="yes"/>
      <point x="407" y="1587"/>
      <point x="532" y="1274"/>
      <point x="917" y="600" type="curve"/>
      <point x="824" y="370"/>
      <point x="536" y="-278"/>
      <point x="369" y="-278" type="curve" smooth="yes"/>
      <point x="264" y="-278"/>
      <point x="240" y="-147"/>
      <point x="203" y="-147" type="curve" smooth="yes"/>
      <point x="164" y="-147"/>
      <point x="136" y="-171"/>
      <point x="136" y="-205" type="curve" smooth="yes"/>
      <point x="136" y="-275"/>
      <point x="290" y="-362"/>
    </contour>
  </outline>
</glyph>
<glyph name="backslash" format="1">
  <advance width="1248"/>
  <unicode hex="005C"/>
  <outline>
    <contour>
      <point x="1081" y="-48" type="curve"/>
      <point x="1129" y="-48"/>
      <point x="1157" y="-27"/>
      <point x="1157" y="16" type="curve"/>
      <point x="1157" y="122"/>
      <point x="673" y="1113"/>
      <point x="448" y="1612" type="curve"/>
      <point x="398" y="1725"/>
      <point x="370" y="1860"/>
      <point x="253" y="1860" type="curve"/>
      <point x="156" y="1860"/>
      <point x="154" y="1757"/>
      <point x="199" y="1660" type="curve"/>
      <point x="428" y="1148"/>
      <point x="666" y="542"/>
      <point x="922" y="39" type="curve"/>
      <point x="946" y="-10"/>
      <point x="1005" y="-48"/>
    </contour>
  </outline>
</glyph>
<glyph name="a" format="1">
  <advance width="1025"/>
  <unicode hex="0061"/>
  <outline>
    <contour>
      <point x="326" y="-16" type="curve" smooth="yes"/>
      <point x="487.008" y="-16"/>
      <point x="642.09" y="84.7552"/>
      <point x="673.435" y="266.63" type="curve"/>
      <point x="647.039" y="105.527"/>
      <point x="721.857" y="0"/>
      <point x="845" y="0" type="curve" smooth="yes"/>
      <point x="993" y="0"/>
      <point x="1144" y="139"/>
      <point x="1213" y="235" type="curve"/>
      <point x="1217" y="242"/>
      <point x="1218" y="246"/>
      <point x="1215" y="279" type="curve"/>
      <point x="1212" y="302"/>
      <point x="1192" y="364"/>
      <point x="1177" y="364" type="curve" smooth="yes"/>
      <point x="1177" y="364"/>
      <point x="1169" y="365"/>
      <point x="1158" y="350" type="curve" smooth="yes"/>
      <point x="1108" y="284"/>
      <point x="980" y="143"/>
      <point x="870" y="143" type="curve" smooth="yes"/>
      <point x="796" y="143"/>
      <point x="784" y="219"/>
      <point x="793" y="278" type="curve" smooth="yes"/>
      <point x="889" y="825" type="line" smooth="yes"/>
      <point x="896" y="865"/>
      <point x="882" y="888"/>
      <point x="840" y="888" type="curve" smooth="yes"/>
      <point x="775" y="888" type="line"/>
      <point x="782" y="923"/>
      <point x="787" y="966"/>
      <point x="667" y="966" type="curve" smooth="yes"/>
      <point x="407" y="966"/>
      <point x="94" y="603"/>
      <point x="94" y="251" type="curve" smooth="yes"/>
      <point x="94" y="99"/>
      <point x="183" y="-16"/>
    </contour>
    <contour>
      <point x="392" y="130" type="curve" smooth="yes"/>
      <point x="288" y="130"/>
      <point x="263" y="226"/>
      <point x="263" y="294" type="curve" smooth="yes"/>
      <point x="263" y="500"/>
      <point x="463" y="856"/>
      <point x="744" y="826" type="curve"/>
      <point x="642" y="437" type="line" smooth="yes"/>
      <point x="618" y="342"/>
      <point x="553" y="130"/>
    </contour>
    <contour>
      <point x="701" y="953" type="move" name="top"/>
    </contour>
  </outline>
</glyph>
<glyph name="c" format="1">
  <advance width="827"/>
  <unicode hex="0063"/>
  <outline>
    <contour>
      <point x="424" y="-16" type="curve"/>
      <point x="676" y="-32"/>
      <point x="925" y="242"/>
      <point x="1002" y="358" type="curve"/>
      <point x="1026" y="393"/>
      <point x="992" y="450"/>
      <point x="963" y="425" type="curve"/>
      <point x="837" y="318"/>
      <point x="633" y="93"/>
      <point x="459" y="109" type="curve"/>
      <point x="324" y="122"/>
      <point x="250.784" y="235.685"/>
      <point x="253.003" y="395.429" type="curve"/>
      <point x="257.294" y="695.788"/>
      <point x="473" y="833"/>
      <point x="578" y="831" type="curve"/>
      <point x="697" y="828"/>
      <point x="719" y="695"/>
      <point x="626" y="584" type="curve"/>
      <point x="599" y="551"/>
      <point x="655" y="477"/>
      <point x="718" y="532" type="curve"/>
      <point x="760" y="568"/>
      <point x="806" y="624"/>
      <point x="811" y="742" type="curve"/>
      <point x="818" y="876"/>
      <point x="717" y="966"/>
      <point x="573" y="966" type="curve"/>
      <point x="327" y="966"/>
      <point x="110" y="688"/>
      <point x="85" y="410" type="curve"/>
      <point x="64" y="184"/>
      <point x="203" y="-2"/>
    </contour>
  </outline>
</glyph>
<glyph name="e" format="1">
  <advance width="842"/>
  <unicode hex="0065"/>
  <outline>
    <contour>
      <point x="245" y="415" type="curve"/>
      <point x="245" y="598"/>
      <point x="404" y="846"/>
      <point x="581" y="846" type="curve"/>
      <point x="640" y="846"/>
      <point x="705" y="802"/>
      <point x="695" y="709" type="curve"/>
      <point x="681" y="563"/>
      <point x="342" y="426"/>
    </contour>
    <contour>
      <point x="481" y="-17" type="curve" smooth="yes"/>
      <point x="719" y="-34"/>
      <point x="924" y="125"/>
      <point x="1012" y="245" type="curve"/>
      <point x="1053" y="300"/>
      <point x="992" y="344"/>
      <point x="972" y="324" type="curve"/>
      <point x="661" y="16"/>
      <point x="303" y="24"/>
      <point x="254" y="322" type="curve"/>
      <point x="601" y="371"/>
      <point x="814" y="539"/>
      <point x="814" y="748" type="curve"/>
      <point x="814" y="885"/>
      <point x="708" y="967"/>
      <point x="569" y="967" type="curve"/>
      <point x="308" y="967"/>
      <point x="112" y="675"/>
      <point x="112" y="377" type="curve"/>
      <point x="111" y="140"/>
      <point x="293" y="-4"/>
    </contour>
  </outline>
</glyph>
<glyph name="i" format="1">
  <advance width="601.005"/>
  <unicode hex="0069"/>
  <outline>
    <contour>
      <point x="559" y="1182" type="curve" smooth="yes"/>
      <point x="654" y="1182"/>
      <point x="713" y="1247"/>
      <point x="713" y="1331" type="curve" smooth="yes"/>
      <point x="713" y="1395"/>
      <point x="662" y="1441"/>
      <point x="583" y="1441" type="curve" smooth="yes"/>
      <point x="487" y="1441"/>
      <point x="417" y="1389"/>
      <point x="417" y="1304" type="curve" smooth="yes"/>
      <point x="417" y="1222"/>
      <point x="466" y="1182"/>
    </contour>
    <contour>
      <point x="326" y="1" type="curve" smooth="yes"/>
      <point x="470" y="-19"/>
      <point x="634" y="60"/>
      <point x="785" y="243" type="curve"/>
      <point x="804" y="268"/>
      <point x="809" y="281"/>
      <point x="810" y="295" type="curve" smooth="yes"/>
      <point x="812" y="327"/>
      <point x="782" y="351"/>
      <point x="746" y="350" type="curve"/>
      <point x="734" y="349"/>
      <point x="724" y="341"/>
      <point x="717" y="332" type="curve"/>
      <point x="477" y="58"/>
      <point x="257" y="62"/>
      <point x="265" y="287" type="curve" smooth="yes"/>
      <point x="270" y="434"/>
      <point x="399" y="759"/>
      <point x="474" y="900" type="curve" smooth="yes"/>
      <point x="491" y="930"/>
      <point x="453" y="953"/>
      <point x="414" y="953" type="curve" smooth="yes"/>
      <point x="356" y="953"/>
      <point x="336" y="946"/>
      <point x="302" y="882" type="curve" smooth="yes"/>
      <point x="222" y="733"/>
      <point x="110" y="430"/>
      <point x="110" y="259" type="curve" smooth="yes"/>
      <point x="110" y="116"/>
      <point x="197" y="19"/>
    </contour>
  </outline>
</glyph>
<glyph name="j" format="1">
  <advance width="666"/>
  <unicode hex="006A"/>
  <outline>
    <contour>
      <point x="562" y="1182" type="curve"/>
      <point x="656.567" y="1182"/>
      <point x="716" y="1235.44"/>
      <point x="716" y="1331" type="curve"/>
      <point x="716" y="1408.27"/>
      <point x="665.484" y="1441"/>
      <point x="586" y="1441" type="curve"/>
      <point x="489.811" y="1441"/>
      <point x="420" y="1388.79"/>
      <point x="420" y="1304" type="curve"/>
      <point x="420" y="1221.59"/>
      <point x="469.363" y="1182"/>
    </contour>
    <contour>
      <point x="287" y="-443" type="curve"/>
      <point x="200" y="-443"/>
      <point x="203.633" y="-261"/>
      <point x="210.112" y="-189" type="curve"/>
      <point x="230.283" y="43.5678"/>
      <point x="276.827" y="253.013"/>
      <point x="328.956" y="454.514" type="curve"/>
      <point x="449" y="332"/>
      <point x="460" y="162"/>
      <point x="443.896" y="-34" type="curve"/>
      <point x="429" y="-200"/>
      <point x="410" y="-443"/>
    </contour>
    <contour>
      <point x="235" y="-607" type="curve"/>
      <point x="462" y="-607"/>
      <point x="554.563" y="-273"/>
      <point x="576.114" y="-29" type="curve"/>
      <point x="591.25" y="143.597"/>
      <point x="553" y="269"/>
      <point x="513" y="394" type="curve"/>
      <point x="694" y="391"/>
      <point x="920" y="438"/>
      <point x="920" y="599" type="curve"/>
      <point x="920" y="624"/>
      <point x="915" y="631"/>
      <point x="896" y="621" type="curve"/>
      <point x="785" y="570"/>
      <point x="650" y="506"/>
      <point x="346.505" y="505.714" type="curve"/>
      <point x="439" y="743" type="line"/>
      <point x="462" y="795"/>
      <point x="496" y="866"/>
      <point x="500" y="924" type="curve"/>
      <point x="502" y="945"/>
      <point x="492" y="956"/>
      <point x="470" y="956" type="curve"/>
      <point x="353" y="956"/>
      <point x="322" y="927"/>
      <point x="283" y="835" type="curve"/>
      <point x="186" y="608"/>
      <point x="86.5972" y="272.042"/>
      <point x="62.8815" y="-3" type="curve"/>
      <point x="40.1104" y="-258"/>
      <point x="26" y="-607"/>
    </contour>
  </outline>
</glyph>
<glyph name="l" format="1">
  <advance width="695"/>
  <unicode hex="006C"/>
  <outline>
    <contour>
      <point x="313" y="676" type="curve"/>
      <point x="331" y="904"/>
      <point x="534" y="1741"/>
      <point x="777" y="1741" type="curve"/>
      <point x="831" y="1741"/>
      <point x="857" y="1707"/>
      <point x="857" y="1651" type="curve"/>
      <point x="857" y="1375"/>
      <point x="510" y="878"/>
    </contour>
    <contour>
      <point x="410" y="-2" type="curve"/>
      <point x="566" y="-2"/>
      <point x="707" y="65"/>
      <point x="864" y="240" type="curve"/>
      <point x="933" y="317"/>
      <point x="841" y="380"/>
      <point x="805" y="340" type="curve"/>
      <point x="703" y="224"/>
      <point x="574" y="124"/>
      <point x="459" y="124" type="curve"/>
      <point x="272" y="124"/>
      <point x="280" y="345"/>
      <point x="304" y="539" type="curve"/>
      <point x="608" y="774"/>
      <point x="981" y="1314"/>
      <point x="1012" y="1729" type="curve"/>
      <point x="1020" y="1836"/>
      <point x="955" y="1921"/>
      <point x="845" y="1921" type="curve"/>
      <point x="451" y="1921"/>
      <point x="180" y="1023"/>
      <point x="141" y="524" type="curve"/>
      <point x="117" y="190"/>
      <point x="185" y="-2"/>
    </contour>
  </outline>
</glyph>
<glyph name="n" format="1">
  <advance width="994"/>
  <unicode hex="006E"/>
  <outline>
    <contour>
      <point x="777" y="-12" type="curve"/>
      <point x="868" y="-12"/>
      <point x="1092" y="97"/>
      <point x="1216" y="267" type="curve"/>
      <point x="1243" y="307"/>
      <point x="1169" y="382"/>
      <point x="1119" y="323" type="curve"/>
      <point x="1025" y="218"/>
      <point x="907" y="147"/>
      <point x="853" y="135" type="curve"/>
      <point x="772" y="115"/>
      <point x="767" y="158"/>
      <point x="767" y="243" type="curve" smooth="yes"/>
      <point x="767" y="372"/>
      <point x="897" y="644"/>
      <point x="897" y="847" type="curve" smooth="yes"/>
      <point x="897" y="897"/>
      <point x="875" y="959"/>
      <point x="791" y="959" type="curve"/>
      <point x="685" y="959"/>
      <point x="446" y="763"/>
      <point x="258" y="265" type="curve"/>
      <point x="285" y="390"/>
      <point x="356" y="791"/>
      <point x="390" y="891" type="curve"/>
      <point x="400" y="920"/>
      <point x="367" y="955"/>
      <point x="325" y="955" type="curve"/>
      <point x="268" y="955"/>
      <point x="254" y="923"/>
      <point x="234" y="872" type="curve"/>
      <point x="163" y="688"/>
      <point x="119" y="385"/>
      <point x="117" y="186" type="curve"/>
      <point x="116" y="80"/>
      <point x="115" y="0"/>
      <point x="199" y="0" type="curve"/>
      <point x="267" y="0"/>
      <point x="288" y="13"/>
      <point x="324" y="102" type="curve"/>
      <point x="428" y="468"/>
      <point x="688" y="804"/>
      <point x="745" y="785" type="curve"/>
      <point x="745" y="598"/>
      <point x="614" y="366"/>
      <point x="614" y="174" type="curve" smooth="yes"/>
      <point x="614" y="60"/>
      <point x="644" y="-12"/>
    </contour>
  </outline>
</glyph>
<glyph name="w" format="1">
  <advance width="1367"/>
  <unicode hex="0077"/>
  <outline>
    <contour>
      <point x="245" y="0" type="curve" smooth="yes"/>
      <point x="260" y="0"/>
      <point x="299" y="17"/>
      <point x="324" y="59" type="curve" smooth="yes"/>
      <point x="395" y="182"/>
      <point x="479" y="370"/>
      <point x="581" y="568" type="curve"/>
      <point x="642" y="682" type="line"/>
      <point x="643" y="348" type="line"/>
      <point x="652" y="158"/>
      <point x="697" y="0"/>
      <point x="787" y="0" type="curve" smooth="yes"/>
      <point x="881" y="0"/>
      <point x="1004" y="224"/>
      <point x="1052" y="347" type="curve"/>
      <point x="1051" y="76"/>
      <point x="1383" y="125"/>
      <point x="1583" y="401" type="curve"/>
      <point x="1605" y="419"/>
      <point x="1560" y="512"/>
      <point x="1527" y="488" type="curve"/>
      <point x="1225" y="159"/>
      <point x="1078" y="302"/>
      <point x="1184" y="608" type="curve" smooth="yes"/>
      <point x="1259" y="821"/>
      <point x="1289" y="883"/>
      <point x="1301" y="911" type="curve"/>
      <point x="1316" y="951"/>
      <point x="1268" y="957"/>
      <point x="1241" y="957" type="curve" smooth="yes"/>
      <point x="1201.66" y="957"/>
      <point x="1165.27" y="923.549"/>
      <point x="1129.38" y="867.766" type="curve" smooth="yes"/>
      <point x="1034.8" y="720.774"/>
      <point x="943.657" y="418.715"/>
      <point x="811" y="165" type="curve"/>
      <point x="806" y="298" type="line"/>
      <point x="791" y="768"/>
      <point x="831" y="932"/>
      <point x="815" y="945" type="curve"/>
      <point x="805" y="952"/>
      <point x="800" y="956"/>
      <point x="761" y="956" type="curve" smooth="yes"/>
      <point x="661" y="956"/>
      <point x="638" y="920"/>
      <point x="597" y="835" type="curve" smooth="yes"/>
      <point x="504" y="643"/>
      <point x="418" y="485"/>
      <point x="335" y="314" type="curve"/>
      <point x="297" y="234" type="line"/>
      <point x="291.928" y="634.673"/>
      <point x="346.702" y="832.185"/>
      <point x="346.454" y="911.736" type="curve" smooth="yes"/>
      <point x="346.359" y="941.98"/>
      <point x="338.312" y="955.174"/>
      <point x="316" y="956" type="curve"/>
      <point x="264" y="956"/>
      <point x="241" y="952"/>
      <point x="219" y="932" type="curve" smooth="yes"/>
      <point x="167" y="884"/>
      <point x="143" y="580"/>
      <point x="143" y="316" type="curve"/>
      <point x="135" y="114"/>
      <point x="156" y="0"/>
    </contour>
  </outline>
</glyph>
<glyph name="x" format="1">
  <advance width="955"/>
  <unicode hex="0078"/>
  <outline>
    <contour>
      <point x="143" y="0" type="curve" smooth="yes"/>
      <point x="177" y="0"/>
      <point x="274" y="0"/>
      <point x="375" y="214" type="curve" smooth="yes"/>
      <point x="413" y="293"/>
      <point x="457" y="365"/>
      <point x="505" y="430" type="curve"/>
      <point x="545" y="482" type="line"/>
      <point x="687" y="658"/>
      <point x="843" y="771"/>
      <point x="901" y="809" type="curve" smooth="yes"/>
      <point x="942" y="826"/>
      <point x="938" y="896"/>
      <point x="924" y="922" type="curve"/>
      <point x="910" y="948"/>
      <point x="871" y="948"/>
      <point x="845" y="932" type="curve" smooth="yes"/>
      <point x="692" y="838"/>
      <point x="581" y="737"/>
      <point x="496" y="640" type="curve"/>
      <point x="444" y="577" type="line"/>
      <point x="265" y="347"/>
      <point x="228" y="154"/>
      <point x="143" y="155" type="curve" smooth="yes"/>
      <point x="45" y="155"/>
      <point x="94" y="240"/>
      <point x="72" y="234" type="curve" smooth="yes"/>
      <point x="50" y="228"/>
      <point x="-7" y="210"/>
      <point x="-5" y="158" type="curve"/>
      <point x="7" y="-17"/>
      <point x="109" y="0"/>
    </contour>
    <contour>
      <point x="753" y="1" type="curve" smooth="yes"/>
      <point x="925" y="-3"/>
      <point x="1073" y="176"/>
      <point x="1119" y="237" type="curve"/>
      <point x="1165" y="298"/>
      <point x="1173" y="401"/>
      <point x="1169" y="412" type="curve"/>
      <point x="1165" y="423"/>
      <point x="1156" y="439"/>
      <point x="1139" y="422" type="curve"/>
      <point x="1128.12" y="411.122"/>
      <point x="1114.28" y="395.788"/>
      <point x="1098.23" y="377.764" type="curve" smooth="yes"/>
      <point x="1016.86" y="286.43"/>
      <point x="878.551" y="126"/>
      <point x="780" y="126" type="curve" smooth="yes"/>
      <point x="592" y="126"/>
      <point x="542" y="961"/>
      <point x="370" y="960" type="curve" smooth="yes"/>
      <point x="316" y="964"/>
      <point x="274" y="936"/>
      <point x="268" y="901" type="curve" smooth="yes"/>
      <point x="264" y="880"/>
      <point x="272" y="857"/>
      <point x="299" y="837" type="curve" smooth="yes"/>
      <point x="430" y="741"/>
      <point x="471" y="8"/>
    </contour>
  </outline>
</glyph>
<glyph name="braceright" format="1">
  <advance width="1248"/>
  <unicode hex="007D"/>
  <outline>
    <contour>
      <point x="450" y="-317" type="curve"/>
      <point x="494.724" y="-317"/>
      <point x="533.985" y="-307"/>
      <point x="574.408" y="-286" type="curve"/>
      <point x="776.829" y="-180"/>
      <point x="808.26" y="69.6329"/>
      <point x="855.354" y="350.195" type="curve"/>
      <point x="872.944" y="453.533"/>
      <point x="950.114" y="537"/>
      <point x="1073" y="537" type="curve"/>
      <point x="1135.25" y="537"/>
      <point x="1168" y="613.031"/>
      <point x="1168" y="688" type="curve"/>
      <point x="1168" y="737.315"/>
      <point x="1152.56" y="774.356"/>
      <point x="1117.53" y="775.004" type="curve"/>
      <point x="1000.69" y="777.209"/>
      <point x="930" y="818.981"/>
      <point x="930" y="943" type="curve"/>
      <point x="930" y="1116.31"/>
      <point x="991" y="1279"/>
      <point x="991" y="1440" type="curve"/>
      <point x="991" y="1613"/>
      <point x="918" y="1744"/>
      <point x="757" y="1744" type="curve"/>
      <point x="591" y="1744"/>
      <point x="299" y="1718"/>
      <point x="299" y="1577" type="curve"/>
      <point x="299" y="1535"/>
      <point x="322" y="1506"/>
      <point x="359" y="1506" type="curve"/>
      <point x="453" y="1506"/>
      <point x="545" y="1538"/>
      <point x="652" y="1538" type="curve"/>
      <point x="751" y="1538"/>
      <point x="773" y="1461"/>
      <point x="773" y="1375" type="curve"/>
      <point x="773" y="1227"/>
      <point x="727" y="1062.97"/>
      <point x="727" y="916" type="curve"/>
      <point x="727" y="757.696"/>
      <point x="786" y="679"/>
      <point x="930" y="668" type="curve"/>
      <point x="796" y="653"/>
      <point x="733" y="588"/>
      <point x="693.1" y="491.441" type="curve"/>
      <point x="635.18" y="351.468"/>
      <point x="651.921" y="-111"/>
      <point x="427" y="-111" type="curve"/>
      <point x="313" y="-111"/>
      <point x="207" y="-34"/>
      <point x="186.673" y="-37" type="curve"/>
      <point x="131.438" y="-45"/>
      <point x="89" y="-100"/>
      <point x="89" y="-163" type="curve"/>
      <point x="89" y="-265"/>
      <point x="326.56" y="-317"/>
    </contour>
  </outline>
</glyph>
<glyph name="sterling" format="1">
  <advance width="1505"/>
  <unicode hex="00A3"/>
  <outline>
    <contour>
      <point x="842" y="-14" type="curve"/>
      <point x="955" y="-14"/>
      <point x="1083" y="0"/>
      <point x="1187" y="13" type="curve"/>
      <point x="1344" y="32"/>
      <point x="1559" y="20"/>
      <point x="1559" y="155" type="curve"/>
      <point x="1559" y="200"/>
      <point x="1494" y="227"/>
      <point x="1433" y="227" type="curve"/>
      <point x="1256" y="227"/>
      <point x="1134" y="167"/>
      <point x="924" y="170" type="curve"/>
      <point x="853" y="158"/>
      <point x="968" y="614"/>
      <point x="984.825" y="798" type="curve"/>
      <point x="1263" y="798" type="line"/>
      <point x="1343.11" y="798"/>
      <point x="1392" y="812.258"/>
      <point x="1392" y="868" type="curve"/>
      <point x="1392" y="935.223"/>
      <point x="1341.1" y="961.999"/>
      <point x="1264" y="961.999" type="curve"/>
      <point x="994.296" y="961.999" type="line"/>
      <point x="988.904" y="1238.85"/>
      <point x="1055" y="1575"/>
      <point x="1344" y="1575" type="curve"/>
      <point x="1446" y="1575"/>
      <point x="1532" y="1534"/>
      <point x="1532" y="1411" type="curve"/>
      <point x="1532" y="1376"/>
      <point x="1565" y="1351"/>
      <point x="1606" y="1351" type="curve"/>
      <point x="1657" y="1351"/>
      <point x="1682" y="1390"/>
      <point x="1682" y="1453" type="curve"/>
      <point x="1682" y="1655"/>
      <point x="1550" y="1739"/>
      <point x="1343" y="1739" type="curve"/>
      <point x="956" y="1739"/>
      <point x="811" y="1428"/>
      <point x="820" y="962" type="curve"/>
      <point x="656" y="961.999" type="line"/>
      <point x="586.545" y="961.999"/>
      <point x="555" y="938.49"/>
      <point x="555" y="879" type="curve"/>
      <point x="555" y="830.856"/>
      <point x="583.046" y="798"/>
      <point x="632" y="798" type="curve"/>
      <point x="802" y="798" type="line"/>
      <point x="789" y="641"/>
      <point x="751" y="365"/>
      <point x="715" y="267" type="curve"/>
      <point x="701" y="224"/>
      <point x="685" y="170"/>
      <point x="685" y="120" type="curve"/>
      <point x="685" y="22"/>
      <point x="728" y="-14"/>
    </contour>
  </outline>
</glyph>
<glyph name="dieresis" format="1">
  <advance width="1025"/>
  <unicode hex="00A8"/>
  <outline>
    <contour>
      <point x="269" y="1331" type="curve" smooth="yes"/>
      <point x="373" y="1331"/>
      <point x="431" y="1404"/>
      <point x="431" y="1505" type="curve" smooth="yes"/>
      <point x="431" y="1600"/>
      <point x="380" y="1653"/>
      <point x="286" y="1653" type="curve" smooth="yes"/>
      <point x="183" y="1653"/>
      <point x="128" y="1581"/>
      <point x="128" y="1479" type="curve" smooth="yes"/>
      <point x="128" y="1381"/>
      <point x="176" y="1331"/>
    </contour>
    <contour>
      <point x="736" y="1331" type="curve" smooth="yes"/>
      <point x="841" y="1331"/>
      <point x="898" y="1403"/>
      <point x="898" y="1505" type="curve" smooth="yes"/>
      <point x="898" y="1600"/>
      <point x="848" y="1653"/>
      <point x="753" y="1653" type="curve" smooth="yes"/>
      <point x="650" y="1653"/>
      <point x="595" y="1581"/>
      <point x="595" y="1479" type="curve" smooth="yes"/>
      <point x="595" y="1382"/>
      <point x="645" y="1331"/>
    </contour>
    <contour>
      <point x="496" y="939" type="move" name="_top"/>
    </contour>
  </outline>
</glyph>
<glyph name="onehalf" format="1">
  <advance width="1729"/>
  <unicode hex="00BD"/>
  <outline>
    <contour>
      <point x="1059" y="141" type="curve"/>
      <point x="1025.8" y="141"/>
      <point x="978" y="163.649"/>
      <point x="978" y="205" type="curve"/>
      <point x="978" y="247.295"/>
      <point x="1022.55" y="265"/>
      <point x="1064" y="265" type="curve"/>
      <point x="1109.55" y="265"/>
      <point x="1175.54" y="228.231"/>
      <point x="1184.32" y="200.491" type="curve"/>
      <point x="1141.12" y="163.227"/>
      <point x="1094.26" y="141"/>
    </contour>
    <contour>
      <point x="1072" y="26" type="curve"/>
      <point x="1175.29" y="26"/>
      <point x="1253.97" y="73.1103"/>
      <point x="1323" y="124.206" type="curve"/>
      <point x="1388.81" y="82.9274"/>
      <point x="1469.83" y="26"/>
      <point x="1561" y="26" type="curve"/>
      <point x="1672.39" y="26"/>
      <point x="1718" y="136"/>
      <point x="1718" y="217" type="curve"/>
      <point x="1718" y="221"/>
      <point x="1724" y="248"/>
      <point x="1691" y="248" type="curve"/>
      <point x="1671" y="248"/>
      <point x="1669" y="163"/>
      <point x="1592" y="163" type="curve"/>
      <point x="1519.48" y="163"/>
      <point x="1461.03" y="178.82"/>
      <point x="1412.13" y="204.291" type="curve"/>
      <point x="1492.21" y="293.817"/>
      <point x="1605" y="437.791"/>
      <point x="1605" y="598" type="curve"/>
      <point x="1605" y="795.135"/>
      <point x="1456.99" y="902"/>
      <point x="1260" y="902" type="curve"/>
      <point x="1093.44" y="902"/>
      <point x="899" y="810.941"/>
      <point x="899" y="663" type="curve"/>
      <point x="899" y="593.704"/>
      <point x="954" y="546"/>
      <point x="1017" y="538" type="curve"/>
      <point x="1062" y="533"/>
      <point x="1145" y="538"/>
      <point x="1145" y="576" type="curve"/>
      <point x="1145" y="609"/>
      <point x="1094" y="618"/>
      <point x="1094" y="660" type="curve"/>
      <point x="1094" y="740.5"/>
      <point x="1167.25" y="781"/>
      <point x="1241" y="781" type="curve"/>
      <point x="1353.63" y="781"/>
      <point x="1391" y="689.025"/>
      <point x="1391" y="583" type="curve"/>
      <point x="1391" y="459.871"/>
      <point x="1318.16" y="346.831"/>
      <point x="1264.32" y="281.04" type="curve"/>
      <point x="1191.24" y="315.499"/>
      <point x="1121.3" y="343"/>
      <point x="1016" y="343" type="curve"/>
      <point x="920.039" y="343"/>
      <point x="858" y="275.318"/>
      <point x="858" y="181" type="curve"/>
      <point x="858" y="85.8392"/>
      <point x="964.374" y="26"/>
    </contour>
    <contour>
      <point x="361" y="795" type="curve"/>
      <point x="488.076" y="795"/>
      <point x="507.836" y="1140.79"/>
      <point x="527.419" y="1245.56" type="curve"/>
      <point x="550.757" y="1371.38"/>
      <point x="583" y="1465.18"/>
      <point x="583" y="1563" type="curve"/>
      <point x="583" y="1611.56"/>
      <point x="540.492" y="1641"/>
      <point x="486" y="1641" type="curve"/>
      <point x="397.282" y="1641"/>
      <point x="296.054" y="1596.23"/>
      <point x="235.985" y="1581.73" type="curve"/>
      <point x="160.877" y="1563.21"/>
      <point x="80" y="1557.66"/>
      <point x="80" y="1506" type="curve"/>
      <point x="80" y="1472.28"/>
      <point x="106.539" y="1438"/>
      <point x="136" y="1438" type="curve"/>
      <point x="150.523" y="1438"/>
      <point x="239.018" y="1480.57"/>
      <point x="397.222" y="1502.16" type="curve"/>
      <point x="355.529" y="1313.13"/>
      <point x="267" y="898.269"/>
      <point x="267" y="866" type="curve"/>
      <point x="267" y="815.907"/>
      <point x="302.315" y="795"/>
    </contour>
    <contour>
      <point x="437" y="256" type="curve"/>
      <point x="472.686" y="256"/>
      <point x="499.898" y="278.266"/>
      <point x="517.749" y="307.168" type="curve"/>
      <point x="719.293" y="632.431"/>
      <point x="901.158" y="977.177"/>
      <point x="1091.45" y="1300.68" type="curve"/>
      <point x="1110.95" y="1333.82"/>
      <point x="1126" y="1364.76"/>
      <point x="1126" y="1402" type="curve"/>
      <point x="1126" y="1432.63"/>
      <point x="1106.44" y="1447"/>
      <point x="1072" y="1447" type="curve"/>
      <point x="1024.27" y="1447"/>
      <point x="979.652" y="1423.31"/>
      <point x="962.309" y="1394.93" type="curve"/>
      <point x="781.678" y="1100.53"/>
      <point x="606.932" y="776"/>
      <point x="437.872" y="471.892" type="curve"/>
      <point x="404.99" y="412.493"/>
      <point x="374" y="383.224"/>
      <point x="374" y="323" type="curve"/>
      <point x="374" y="283.152"/>
      <point x="400.542" y="256"/>
    </contour>
  </outline>
</glyph>
<glyph name="Atilde" format="1">
  <advance width="1920"/>
  <unicode hex="00C3"/>
  <outline>
    <contour>
      <point x="812" y="-175" type="curve" smooth="yes"/>
      <point x="1070" y="-175"/>
      <point x="1275" y="-29"/>
      <point x="1349" y="173" type="curve"/>
      <point x="1340" y="144"/>
      <point x="1335" y="117"/>
      <point x="1335" y="90" type="curve" smooth="yes"/>
      <point x="1335" y="-42"/>
      <point x="1390" y="-142"/>
      <point x="1526" y="-160" type="curve" smooth="yes"/>
      <point x="1678" y="-180"/>
      <point x="1838" y="-99"/>
      <point x="1934" y="13" type="curve" smooth="yes"/>
      <point x="1996" y="86"/>
      <point x="1893" y="222"/>
      <point x="1832" y="168" type="curve" smooth="yes"/>
      <point x="1771" y="114"/>
      <point x="1697" y="46"/>
      <point x="1646" y="46" type="curve" smooth="yes"/>
      <point x="1586" y="46"/>
      <point x="1578" y="164"/>
      <point x="1645" y="472" type="curve" smooth="yes"/>
      <point x="1848" y="1398" type="line" smooth="yes"/>
      <point x="1875" y="1523"/>
      <point x="1643" y="1584"/>
      <point x="1615" y="1459" type="curve" smooth="yes"/>
      <point x="1428" y="634" type="line" smooth="yes"/>
      <point x="1358" y="324"/>
      <point x="1151" y="49"/>
      <point x="849" y="49" type="curve" smooth="yes"/>
      <point x="660" y="49"/>
      <point x="508" y="160"/>
      <point x="461" y="357" type="curve" smooth="yes"/>
      <point x="290" y="1081"/>
      <point x="998.999" y="1794"/>
      <point x="1596" y="1734" type="curve" smooth="yes"/>
      <point x="1869" y="1707"/>
      <point x="2035" y="1540"/>
      <point x="2065" y="1535" type="curve"/>
      <point x="2172" y="1452"/>
      <point x="2293" y="1587"/>
      <point x="2190" y="1694" type="curve" smooth="yes"/>
      <point x="2064" y="1825"/>
      <point x="1845" y="1942"/>
      <point x="1584" y="1958" type="curve" smooth="yes"/>
      <point x="767" y="2008"/>
      <point x="3" y="1136"/>
      <point x="174" y="349" type="curve" smooth="yes"/>
      <point x="239" y="51"/>
      <point x="437" y="-175"/>
    </contour>
    <contour>
      <point x="1565" y="1928" type="curve" smooth="yes"/>
      <point x="1683" y="1928"/>
      <point x="1811" y="2075"/>
      <point x="1811" y="2190" type="curve" smooth="yes"/>
      <point x="1811" y="2236"/>
      <point x="1774" y="2263"/>
      <point x="1728" y="2263" type="curve" smooth="yes"/>
      <point x="1629" y="2263"/>
      <point x="1596" y="2154"/>
      <point x="1547" y="2100" type="curve"/>
      <point x="1497" y="2139"/>
      <point x="1457" y="2172"/>
      <point x="1425" y="2197" type="curve" smooth="yes"/>
      <point x="1366" y="2244"/>
      <point x="1319" y="2296"/>
      <point x="1229" y="2296" type="curve" smooth="yes"/>
      <point x="1111" y="2296"/>
      <point x="982.999" y="2149"/>
      <point x="982.999" y="2034" type="curve" smooth="yes"/>
      <point x="982.999" y="1988"/>
      <point x="1020" y="1961"/>
      <point x="1066" y="1961" type="curve" smooth="yes"/>
      <point x="1161" y="1961"/>
      <point x="1203" y="2069"/>
      <point x="1247" y="2124" type="curve"/>
      <point x="1297" y="2085"/>
      <point x="1337" y="2052"/>
      <point x="1369" y="2027" type="curve" smooth="yes"/>
      <point x="1428" y="1980"/>
      <point x="1475" y="1928"/>
    </contour>
  </outline>
</glyph>
<glyph name="Ecircumflex" format="1">
  <advance width="1618"/>
  <unicode hex="00CA"/>
  <outline>
    <contour>
      <point x="740" y="-303" type="curve" smooth="yes"/>
      <point x="1158" y="-303"/>
      <point x="1527" y="-66"/>
      <point x="1780" y="250" type="curve" smooth="yes"/>
      <point x="1861" y="351"/>
      <point x="1740" y="534"/>
      <point x="1629" y="401" type="curve" smooth="yes"/>
      <point x="1399" y="125"/>
      <point x="1102" y="-62"/>
      <point x="749" y="-62" type="curve" smooth="yes"/>
      <point x="545" y="-62"/>
      <point x="433" y="37"/>
      <point x="418" y="239" type="curve" smooth="yes"/>
      <point x="399" y="502"/>
      <point x="618" y="694"/>
      <point x="1047" y="694" type="curve" smooth="yes"/>
      <point x="1239" y="694"/>
      <point x="1258" y="914"/>
      <point x="1117" y="945" type="curve" smooth="yes"/>
      <point x="941" y="983.999"/>
      <point x="593" y="1077"/>
      <point x="616" y="1359" type="curve" smooth="yes"/>
      <point x="648" y="1751"/>
      <point x="1313" y="1680"/>
      <point x="1533" y="1501" type="curve"/>
      <point x="1453" y="1313" type="line" smooth="yes"/>
      <point x="1372" y="1124"/>
      <point x="1780" y="1109"/>
      <point x="1761" y="1438" type="curve" smooth="yes"/>
      <point x="1743" y="1743"/>
      <point x="1363" y="1867"/>
      <point x="1038" y="1867" type="curve" smooth="yes"/>
      <point x="692" y="1867"/>
      <point x="362" y="1742"/>
      <point x="332" y="1385" type="curve" smooth="yes"/>
      <point x="308" y="1105"/>
      <point x="503" y="905"/>
      <point x="874" y="855" type="curve"/>
      <point x="487" y="845"/>
      <point x="119" y="622"/>
      <point x="119" y="233" type="curve" smooth="yes"/>
      <point x="119" y="-121"/>
      <point x="392" y="-303"/>
    </contour>
    <contour>
      <point x="1177" y="1928" type="curve" smooth="yes"/>
      <point x="1255" y="1928"/>
      <point x="1304" y="1974"/>
      <point x="1304" y="2041" type="curve" smooth="yes"/>
      <point x="1304" y="2159"/>
      <point x="1267" y="2249"/>
      <point x="1244" y="2354" type="curve" smooth="yes"/>
      <point x="1219" y="2468"/>
      <point x="1199" y="2604"/>
      <point x="1079" y="2604" type="curve" smooth="yes"/>
      <point x="925" y="2604"/>
      <point x="890" y="2486"/>
      <point x="835" y="2390" type="curve" smooth="yes"/>
      <point x="636" y="2061" type="line" smooth="yes"/>
      <point x="628" y="2048"/>
      <point x="624" y="2036"/>
      <point x="624" y="2023" type="curve" smooth="yes"/>
      <point x="624" y="1980"/>
      <point x="649" y="1932"/>
      <point x="684" y="1932" type="curve" smooth="yes"/>
      <point x="793" y="1932"/>
      <point x="822" y="1983"/>
      <point x="858" y="2060" type="curve" smooth="yes"/>
      <point x="919" y="2190"/>
      <point x="980.999" y="2309"/>
      <point x="1045" y="2440" type="curve"/>
      <point x="1058" y="2322"/>
      <point x="1055" y="1928"/>
    </contour>
  </outline>
</glyph>
<glyph name="Ucircumflex" format="1">
  <advance width="1592"/>
  <unicode hex="00DB"/>
  <outline>
    <contour>
      <point x="700" y="-160" type="curve" smooth="yes"/>
      <point x="901" y="-160"/>
      <point x="1048" y="-65"/>
      <point x="1160" y="48" type="curve" smooth="yes"/>
      <point x="1484" y="373"/>
      <point x="1616" y="940"/>
      <point x="1616" y="1593" type="curve" smooth="yes"/>
      <point x="1616" y="1681"/>
      <point x="1589" y="1728"/>
      <point x="1503" y="1728" type="curve" smooth="yes"/>
      <point x="1390" y="1728"/>
      <point x="1334" y="1677"/>
      <point x="1328" y="1568" type="curve" smooth="yes"/>
      <point x="1304" y="1124"/>
      <point x="1212" y="64"/>
      <point x="731" y="64" type="curve" smooth="yes"/>
      <point x="549" y="64"/>
      <point x="442" y="176"/>
      <point x="442" y="578" type="curve" smooth="yes"/>
      <point x="442" y="948"/>
      <point x="603" y="1225"/>
      <point x="657" y="1529" type="curve"/>
      <point x="657" y="1537" type="line" smooth="yes"/>
      <point x="657" y="1625"/>
      <point x="588" y="1632"/>
      <point x="500" y="1632" type="curve" smooth="yes"/>
      <point x="399" y="1632"/>
      <point x="375" y="1556"/>
      <point x="346" y="1472" type="curve" smooth="yes"/>
      <point x="258" y="1222"/>
      <point x="176" y="923"/>
      <point x="176" y="588" type="curve" smooth="yes"/>
      <point x="176" y="183"/>
      <point x="295" y="-160"/>
    </contour>
    <contour>
      <point x="1768" y="1928" type="curve" smooth="yes"/>
      <point x="1846" y="1928"/>
      <point x="1895" y="1974"/>
      <point x="1895" y="2041" type="curve" smooth="yes"/>
      <point x="1895" y="2159"/>
      <point x="1858" y="2249"/>
      <point x="1835" y="2354" type="curve" smooth="yes"/>
      <point x="1810" y="2468"/>
      <point x="1790" y="2604"/>
      <point x="1670" y="2604" type="curve" smooth="yes"/>
      <point x="1516" y="2604"/>
      <point x="1481" y="2486"/>
      <point x="1426" y="2390" type="curve" smooth="yes"/>
      <point x="1227" y="2061" type="line" smooth="yes"/>
      <point x="1219" y="2048"/>
      <point x="1215" y="2036"/>
      <point x="1215" y="2023" type="curve" smooth="yes"/>
      <point x="1215" y="1980"/>
      <point x="1240" y="1932"/>
      <point x="1275" y="1932" type="curve" smooth="yes"/>
      <point x="1384" y="1932"/>
      <point x="1413" y="1983"/>
      <point x="1449" y="2060" type="curve" smooth="yes"/>
      <point x="1510" y="2190"/>
      <point x="1572" y="2309"/>
      <point x="1636" y="2440" type="curve"/>
      <point x="1649" y="2322"/>
      <point x="1646" y="1928"/>
    </contour>
  </outline>
</glyph>
<glyph name="bullet" format="1">
  <advance width="1120"/>
  <unicode hex="2022"/>
  <outline>
    <contour>
      <point x="512" y="281" type="curve"/>
      <point x="710.17" y="281"/>
      <point x="834" y="460.275"/>
      <point x="834" y="672" type="curve"/>
      <point x="834" y="805.224"/>
      <point x="770.922" y="866"/>
      <point x="640" y="866" type="curve"/>
      <point x="445.523" y="866"/>
      <point x="286" y="737.582"/>
      <point x="286" y="544" type="curve"/>
      <point x="286" y="381.839"/>
      <point x="361.181" y="281"/>
    </contour>
  </outline>
</glyph>
<glyph name="ellipsis" format="1">
  <advance width="1567"/>
  <unicode hex="2026"/>
  <outline>
    <contour>
      <point x="484" y="0" type="curve" smooth="yes"/>
      <point x="603" y="0"/>
      <point x="672" y="76"/>
      <point x="672" y="191" type="curve" smooth="yes"/>
      <point x="672" y="297"/>
      <point x="611" y="353"/>
      <point x="503" y="353" type="curve" smooth="yes"/>
      <point x="386" y="353"/>
      <point x="320" y="277"/>
      <point x="320" y="162" type="curve" smooth="yes"/>
      <point x="320" y="55"/>
      <point x="378" y="0"/>
    </contour>
    <contour>
      <point x="1316" y="0" type="curve" smooth="yes"/>
      <point x="1435" y="0"/>
      <point x="1504" y="76"/>
      <point x="1504" y="191" type="curve" smooth="yes"/>
      <point x="1504" y="297"/>
      <point x="1443" y="353"/>
      <point x="1335" y="353" type="curve" smooth="yes"/>
      <point x="1218" y="353"/>
      <point x="1152" y="277"/>
      <point x="1152" y="162" type="curve" smooth="yes"/>
      <point x="1152" y="55"/>
      <point x="1210" y="0"/>
    </contour>
    <contour>
      <point x="900" y="0" type="curve" smooth="yes"/>
      <point x="1019" y="0"/>
      <point x="1088" y="76"/>
      <point x="1088" y="191" type="curve" smooth="yes"/>
      <point x="1088" y="297"/>
      <point x="1027" y="353"/>
      <point x="919" y="353" type="curve" smooth="yes"/>
      <point x="802" y="353"/>
      <point x="736" y="277"/>
      <point x="736" y="162" type="curve" smooth="yes"/>
      <point x="736" y="55"/>
      <point x="794" y="0"/>
    </contour>
  </outline>
</glyph>
<glyph name="f.fina" format="1">
  <advance width="887"/>
  <outline>
    <contour>
      <point x="270" y="-604" type="curve" smooth="yes"/>
      <point x="530" y="-604"/>
      <point x="633" y="-267"/>
      <point x="633" y="-29" type="curve" smooth="yes"/>
      <point x="633" y="182"/>
      <point x="570" y="356"/>
      <point x="514" y="497" type="curve"/>
      <point x="629" y="499"/>
      <point x="763" y="501"/>
      <point x="874" y="514" type="curve" smooth="yes"/>
      <point x="979.999" y="529"/>
      <point x="1060" y="557"/>
      <point x="1060" y="612" type="curve" smooth="yes"/>
      <point x="1060" y="651"/>
      <point x="1047" y="681"/>
      <point x="1024" y="681" type="curve" smooth="yes"/>
      <point x="835" y="681"/>
      <point x="702" y="658"/>
      <point x="491" y="657" type="curve"/>
      <point x="691" y="894"/>
      <point x="981.999" y="1271"/>
      <point x="981.999" y="1624" type="curve" smooth="yes"/>
      <point x="981.999" y="1762"/>
      <point x="907" y="1856"/>
      <point x="782" y="1856" type="curve" smooth="yes"/>
      <point x="226" y="1856"/>
      <point x="34" y="521"/>
      <point x="34" y="-38" type="curve" smooth="yes"/>
      <point x="34" y="-276"/>
      <point x="62" y="-604"/>
    </contour>
    <contour>
      <point x="302" y="-379" type="curve" smooth="yes"/>
      <point x="263" y="-379"/>
      <point x="259" y="-187"/>
      <point x="259" y="-47" type="curve" smooth="yes"/>
      <point x="259" y="144"/>
      <point x="277" y="330"/>
      <point x="286" y="522" type="curve"/>
      <point x="358" y="384"/>
      <point x="422" y="187"/>
      <point x="422" y="-57" type="curve" smooth="yes"/>
      <point x="422" y="-62" type="line" smooth="yes"/>
      <point x="422" y="-173"/>
      <point x="421" y="-379"/>
    </contour>
    <contour>
      <point x="330" y="686" type="curve"/>
      <point x="356" y="775"/>
      <point x="516" y="1631"/>
      <point x="745" y="1631" type="curve" smooth="yes"/>
      <point x="786" y="1631"/>
      <point x="795" y="1583"/>
      <point x="795" y="1529" type="curve" smooth="yes"/>
      <point x="795" y="1266"/>
      <point x="486" y="879"/>
    </contour>
  </outline>
</glyph>
